<?xml version="1.0" encoding="UTF-8"?>
<svg width="16px" height="14px" viewBox="0 0 16 14" version="1.1" xmlns="http://www.w3.org/2000/svg" xmlns:xlink="http://www.w3.org/1999/xlink">
    <!-- Generator: Sketch 54.1 (76490) - https://sketchapp.com -->
    <title>ic-edit</title>
    <desc>Created with Sketch.</desc>
    <g id="Page-1" stroke="none" stroke-width="1" fill="none" fill-rule="evenodd">
        <g id="ic-edit" fill="#8C4799" fill-rule="nonzero">
            <path d="M10.9789474,9.43976608 L11.8522417,8.56647173 C11.988694,8.43001949 12.2261209,8.52553606 12.2261209,8.72202729 L12.2261209,12.6900585 C12.2261209,13.4132554 11.6393762,14 10.9161793,14 L1.30994152,14 C0.586744639,14 0,13.4132554 0,12.6900585 L0,3.08382066 C0,2.36062378 0.586744639,1.77387914 1.30994152,1.77387914 L8.77387914,1.77387914 C8.96764133,1.77387914 9.06588694,2.008577 8.9294347,2.14775828 L8.05614035,3.02105263 C8.01520468,3.0619883 7.96062378,3.08382066 7.9005848,3.08382066 L1.30994152,3.08382066 L1.30994152,12.6900585 L10.9161793,12.6900585 L10.9161793,9.59259259 C10.9161793,9.53528265 10.9380117,9.48070175 10.9789474,9.43976608 Z M15.2526316,3.93255361 L8.08615984,11.0990253 L5.61910331,11.3719298 C4.90409357,11.4510721 4.29551657,10.8479532 4.37465887,10.1274854 L4.64756335,7.66042885 L11.8140351,0.493957115 C12.4389864,-0.130994152 13.4487329,-0.130994152 14.0709552,0.493957115 L15.2499025,1.67290448 C15.8748538,2.29785575 15.8748538,3.31033138 15.2526316,3.93255361 L15.2526316,3.93255361 Z M12.5563353,4.77582846 L10.9707602,3.19025341 L5.90019493,8.26354776 L5.70097466,10.045614 L7.48304094,9.84639376 L12.5563353,4.77582846 Z M14.3247563,2.60077973 L13.145809,1.42183236 C13.0339181,1.30994152 12.8510721,1.30994152 12.7419103,1.42183236 L11.8986355,2.26510721 L13.4842105,3.85068226 L14.3274854,3.00740741 C14.4366472,2.89278752 14.4366472,2.71267057 14.3247563,2.60077973 L14.3247563,2.60077973 Z" id="Shape"></path>
        </g>
    </g>
</svg>